<svg id="Layer_1" data-name="Layer 1" xmlns="http://www.w3.org/2000/svg" viewBox="0 0 512 512"><defs><style>.cls-1{fill:#c0ccdd;}.cls-2{fill:#308261;}.cls-3{fill:#ffcf99;}.cls-4{fill:#d39f75;}.cls-5{fill:#3eb38a;}.cls-6{fill:#5e5349;}.cls-7{fill:#f7818f;}.cls-8{opacity:0.06;}</style></defs><title>customer-service-flat</title><path class="cls-1" d="M426.67,183.79a6.56,6.56,0,0,1-6.56-6.56c0-90.49-73.62-164.1-164.1-164.1S91.9,86.74,91.9,177.23a6.56,6.56,0,1,1-13.13,0C78.77,79.51,158.28,0,256,0S433.23,79.51,433.23,177.23A6.56,6.56,0,0,1,426.67,183.79Z"/><path class="cls-2" d="M52.51,223.18a39.38,39.38,0,1,0,0,78.77h0V223.18Z"/><path class="cls-1" d="M216.62,485.74c-76,0-137.85-61.84-137.85-137.85H91.9A124.86,124.86,0,0,0,216.62,472.62Z"/><path class="cls-3" d="M393.85,223.18v59.08c0,76-61.83,137.85-137.85,137.85S118.15,358.27,118.15,282.26V223.18H256c18.12,0,39.38-14.7,39.38-32.82,0,18.12,21.27,32.82,39.38,32.82Z"/><path class="cls-4" d="M256,354.46a45.67,45.67,0,0,1-34.19-15.34,6.56,6.56,0,1,1,9.82-8.71,32.65,32.65,0,0,0,48.73,0,6.56,6.56,0,1,1,9.82,8.71A45.67,45.67,0,0,1,256,354.46Z"/><circle class="cls-4" cx="216.62" cy="282.26" r="13.13"/><circle class="cls-4" cx="295.38" cy="282.26" r="13.13"/><path class="cls-5" d="M85.33,347.9h0a32.82,32.82,0,0,1-32.82-32.82V203.49a32.82,32.82,0,0,1,32.82-32.82h0a32.82,32.82,0,0,1,32.82,32.82V315.08A32.82,32.82,0,0,1,85.33,347.9Z"/><path class="cls-2" d="M459.49,223.18a39.38,39.38,0,1,1,0,78.77h0V223.18Z"/><path class="cls-5" d="M426.67,347.9h0a32.82,32.82,0,0,0,32.82-32.82V203.49a32.82,32.82,0,0,0-32.82-32.82h0a32.82,32.82,0,0,0-32.82,32.82V315.08A32.82,32.82,0,0,0,426.67,347.9Z"/><path class="cls-6" d="M393.52,223.18H334.77c-18.12,0-39.38-14.7-39.38-32.82,0,18.12-21.27,32.82-39.38,32.82H118.48C122,150.25,182.22,91.9,256,91.9S390,150.25,393.52,223.18Z"/><path class="cls-7" d="M301.95,479.18A32.83,32.83,0,0,1,269.13,512H242.87a32.82,32.82,0,0,1,0-65.64h26.26A32.83,32.83,0,0,1,301.95,479.18Z"/><g class="cls-8"><path d="M301.95,479.18A32.83,32.83,0,0,1,269.13,512H256V446.36h13.13A32.83,32.83,0,0,1,301.95,479.18Z"/></g><g class="cls-8"><path d="M393.85,223.18v59.08c0,76-61.83,137.85-137.85,137.85V91.9c73.78,0,134,58.35,137.52,131.28Z"/></g></svg>